<svg xmlns="http://www.w3.org/2000/svg" xmlns:xlink="http://www.w3.org/1999/xlink" width="500" zoomAndPan="magnify" viewBox="0 0 375 374.999991" height="500" preserveAspectRatio="xMidYMid meet" version="1.0"><defs><g/><clipPath id="87d42e744a"><path d="M 64 204 L 124 204 L 124 214.34375 L 64 214.34375 Z M 64 204 " clip-rule="nonzero"/></clipPath><clipPath id="385c94220e"><path d="M 16.058594 98.84375 L 149.558594 98.84375 L 149.558594 214.34375 L 16.058594 214.34375 Z M 16.058594 98.84375 " clip-rule="nonzero"/></clipPath><clipPath id="63c72bb285"><path d="M 16.058594 171 L 147 171 L 147 214.34375 L 16.058594 214.34375 Z M 16.058594 171 " clip-rule="nonzero"/></clipPath><clipPath id="96455abab3"><path d="M 32 140 L 149.558594 140 L 149.558594 214.34375 L 32 214.34375 Z M 32 140 " clip-rule="nonzero"/></clipPath><clipPath id="ef2bf854fa"><path d="M 65 190 L 123 190 L 123 214.34375 L 65 214.34375 Z M 65 190 " clip-rule="nonzero"/></clipPath></defs><g clip-path="url(#87d42e744a)"><path fill="#1d949a" d="M 82.230469 208.496094 C 82.230469 208.496094 79.480469 217.414062 80.503906 234.765625 C 81.53125 252.152344 86.964844 258.625 88.089844 261.882812 C 89.214844 265.140625 87.246094 272.320312 85.21875 271.988281 C 82.535156 271.550781 81.925781 265.84375 81.925781 265.84375 C 81.925781 265.84375 78.042969 272.832031 75.59375 272.292969 C 72.964844 271.710938 74.457031 265.125 74.457031 265.125 C 74.457031 265.125 68.417969 269.210938 67.40625 268.03125 C 66.394531 266.851562 70.925781 261.660156 70.925781 261.660156 C 57.417969 234.035156 70.925781 204.066406 70.925781 204.066406 Z M 105.792969 208.496094 C 105.792969 208.496094 108.546875 217.414062 107.519531 234.765625 C 106.492188 252.152344 101.0625 258.625 99.933594 261.882812 C 98.808594 265.140625 100.78125 272.320312 102.804688 271.988281 C 105.492188 271.550781 106.097656 265.84375 106.097656 265.84375 C 106.097656 265.84375 109.980469 272.832031 112.429688 272.292969 C 115.058594 271.710938 113.570312 265.125 113.570312 265.125 C 113.570312 265.125 119.605469 269.210938 120.617188 268.03125 C 121.632812 266.851562 117.101562 261.660156 117.101562 261.660156 C 130.609375 234.035156 117.101562 204.066406 117.101562 204.066406 Z M 105.792969 208.496094 " fill-opacity="1" fill-rule="nonzero"/></g><g clip-path="url(#385c94220e)"><path fill="#2dbcb7" d="M 148.691406 233.484375 C 148.691406 233.488281 148.695312 233.492188 148.695312 233.496094 C 147.335938 243.089844 143.828125 248.222656 142.457031 248.324219 C 141.332031 248.40625 141.613281 244.386719 141.613281 244.386719 C 141.613281 244.386719 138.824219 250.429688 137.558594 250.007812 C 136.292969 249.585938 136.699219 243.402344 136.699219 243.402344 C 136.699219 243.402344 134.9375 246.960938 133.339844 246.472656 C 132.242188 246.132812 134.082031 231.117188 134.082031 231.117188 C 134.441406 225.335938 135.332031 218.820312 134.183594 214.074219 C 132.300781 206.304688 126.644531 201.839844 125.335938 200.894531 C 116.328125 207.90625 103.414062 209.328125 94 209.328125 C 84.929688 209.328125 72.613281 208.011719 63.667969 201.644531 C 60.289062 205.066406 45.394531 212.824219 33.230469 206.550781 C 25.917969 202.78125 21.597656 196.390625 19.847656 190.425781 C 19.847656 190.425781 19.847656 190.421875 19.847656 190.421875 C 18.730469 187.359375 16.078125 175.21875 17.261719 175.179688 C 18.28125 175.144531 20.371094 177.210938 20.921875 177.773438 C 20.957031 177.730469 20.992188 177.691406 21.027344 177.652344 C 20.886719 176.488281 20.40625 171.828125 21.734375 171.683594 C 23.253906 171.515625 25.617188 175.996094 25.617188 175.996094 C 25.617188 175.996094 26.546875 172.1875 27.644531 172.1875 C 28.738281 172.1875 32.734375 182.835938 32.753906 182.890625 C 35.394531 187.328125 37.925781 192.734375 41.785156 195.320312 C 47.824219 199.367188 54.964844 196.863281 57.574219 195.703125 C 53.71875 190.476562 51.496094 183.3125 52.125 173.515625 C 53.585938 150.878906 69.230469 142.464844 81.78125 139.527344 C 80.242188 138.050781 78.152344 136.308594 75.585938 134.78125 C 69.730469 131.300781 66.355469 128.828125 67.816406 126.359375 C 69.28125 123.886719 78.734375 124.785156 87.066406 136.914062 C 84.476562 127.707031 81.664062 123.214844 79.300781 119.734375 C 76.933594 116.253906 79.972656 111.421875 86.390625 115.914062 C 92.5 120.191406 93.8125 133.875 93.046875 138.082031 C 93.105469 138.082031 93.164062 138.078125 93.222656 138.078125 C 96.371094 132.082031 97.519531 127.546875 97.082031 115.914062 C 96.632812 103.917969 100.121094 98.847656 103.160156 98.847656 C 106.3125 98.847656 109.546875 106.632812 106.054688 123.027344 C 103.917969 131.898438 100.011719 136.914062 100.011719 136.914062 C 100.011719 136.914062 109.691406 127.257812 112.277344 119.394531 C 114.867188 111.535156 123.421875 112.996094 120.609375 123.328125 C 118.769531 130.078125 111.695312 136.15625 106.347656 139.558594 C 118.878906 142.523438 134.417969 150.960938 135.871094 173.515625 C 136.453125 182.539062 134.609375 189.332031 131.300781 194.433594 C 136.792969 197.410156 145.4375 204.878906 147.914062 216.320312 C 149.332031 222.851562 149.5 228.773438 148.691406 233.484375 Z M 148.691406 233.484375 C 148.691406 233.488281 148.695312 233.492188 148.695312 233.496094 C 147.335938 243.089844 143.828125 248.222656 142.457031 248.324219 C 141.332031 248.40625 141.613281 244.386719 141.613281 244.386719 C 141.613281 244.386719 138.824219 250.429688 137.558594 250.007812 C 136.292969 249.585938 136.699219 243.402344 136.699219 243.402344 C 136.699219 243.402344 134.9375 246.960938 133.339844 246.472656 C 132.242188 246.132812 134.082031 231.117188 134.082031 231.117188 C 134.441406 225.335938 135.332031 218.820312 134.183594 214.074219 C 132.300781 206.304688 126.644531 201.839844 125.335938 200.894531 C 116.328125 207.90625 103.414062 209.328125 94 209.328125 C 84.929688 209.328125 72.613281 208.011719 63.667969 201.644531 C 60.289062 205.066406 45.394531 212.824219 33.230469 206.550781 C 25.917969 202.78125 21.597656 196.390625 19.847656 190.425781 C 19.847656 190.425781 19.847656 190.421875 19.847656 190.421875 C 18.730469 187.359375 16.078125 175.21875 17.261719 175.179688 C 18.28125 175.144531 20.371094 177.210938 20.921875 177.773438 C 20.957031 177.730469 20.992188 177.691406 21.027344 177.652344 C 20.886719 176.488281 20.40625 171.828125 21.734375 171.683594 C 23.253906 171.515625 25.617188 175.996094 25.617188 175.996094 C 25.617188 175.996094 26.546875 172.1875 27.644531 172.1875 C 28.738281 172.1875 32.734375 182.835938 32.753906 182.890625 C 35.394531 187.328125 37.925781 192.734375 41.785156 195.320312 C 47.824219 199.367188 54.964844 196.863281 57.574219 195.703125 C 53.71875 190.476562 51.496094 183.3125 52.125 173.515625 C 53.585938 150.878906 69.230469 142.464844 81.78125 139.527344 C 80.242188 138.050781 78.152344 136.308594 75.585938 134.78125 C 69.730469 131.300781 66.355469 128.828125 67.816406 126.359375 C 69.28125 123.886719 78.734375 124.785156 87.066406 136.914062 C 84.476562 127.707031 81.664062 123.214844 79.300781 119.734375 C 76.933594 116.253906 79.972656 111.421875 86.390625 115.914062 C 92.5 120.191406 93.8125 133.875 93.046875 138.082031 C 93.105469 138.082031 93.164062 138.078125 93.222656 138.078125 C 96.371094 132.082031 97.519531 127.546875 97.082031 115.914062 C 96.632812 103.917969 100.121094 98.847656 103.160156 98.847656 C 106.3125 98.847656 109.546875 106.632812 106.054688 123.027344 C 103.917969 131.898438 100.011719 136.914062 100.011719 136.914062 C 100.011719 136.914062 109.691406 127.257812 112.277344 119.394531 C 114.867188 111.535156 123.421875 112.996094 120.609375 123.328125 C 118.769531 130.078125 111.695312 136.15625 106.347656 139.558594 C 118.878906 142.523438 134.417969 150.960938 135.871094 173.515625 C 136.453125 182.539062 134.609375 189.332031 131.300781 194.433594 C 136.792969 197.410156 145.4375 204.878906 147.914062 216.320312 C 149.332031 222.851562 149.5 228.773438 148.691406 233.484375 Z M 54.921875 150.726562 C 50.730469 150.726562 46.847656 152.363281 43.976562 155.332031 C 41.574219 157.824219 38.765625 162.390625 39.050781 170.015625 C 39.292969 176.542969 42.261719 180.113281 44.707031 181.957031 C 47.402344 183.992188 51.023438 185.109375 54.902344 185.109375 C 55.441406 185.109375 55.988281 185.089844 56.523438 185.042969 C 60.734375 184.695312 63.953125 183.421875 66.359375 181.144531 C 69.433594 178.234375 70.992188 173.777344 70.992188 167.890625 C 70.992188 156.820312 65.285156 150.726562 54.921875 150.726562 Z M 149.285156 165.824219 C 149.042969 159.292969 146.074219 155.726562 143.628906 153.882812 C 140.929688 151.847656 137.308594 150.726562 133.433594 150.726562 C 132.890625 150.726562 132.347656 150.75 131.8125 150.792969 C 127.601562 151.140625 124.382812 152.417969 121.976562 154.695312 C 118.902344 157.601562 117.34375 162.0625 117.34375 167.949219 C 117.34375 179.015625 123.050781 185.109375 133.414062 185.109375 C 137.601562 185.109375 141.488281 183.476562 144.359375 180.503906 C 146.761719 178.015625 149.570312 173.445312 149.285156 165.824219 Z M 149.285156 165.824219 " fill-opacity="1" fill-rule="nonzero"/></g><path fill="#0e0f1a" d="M 66.484375 167.894531 C 66.484375 177.21875 62.101562 179.425781 57.886719 179.824219 C 53.726562 180.21875 47.734375 178.246094 47.453125 169.554688 C 47.171875 160.863281 51.683594 155.964844 56.898438 155.964844 C 61.550781 155.964844 66.484375 158.179688 66.484375 167.894531 Z M 131.796875 179.871094 C 137.011719 179.871094 141.523438 174.972656 141.242188 166.285156 C 140.960938 157.59375 134.96875 155.617188 130.808594 156.011719 C 126.59375 156.414062 122.207031 158.621094 122.207031 167.941406 C 122.207031 177.660156 127.144531 179.871094 131.796875 179.871094 Z M 82.261719 174.464844 C 77.316406 176.417969 83.351562 188.441406 93.625 188.441406 C 106.945312 188.441406 111.296875 175.429688 104.960938 174.125 C 98.628906 172.820312 88.222656 172.113281 82.261719 174.464844 Z M 82.261719 174.464844 " fill-opacity="1" fill-rule="nonzero"/><path fill="#ffffff" d="M 54.921875 153.308594 C 47.585938 153.308594 41.242188 159.296875 41.636719 169.917969 C 42.035156 180.539062 50.460938 182.953125 56.308594 182.46875 C 62.234375 181.980469 68.402344 179.285156 68.402344 167.890625 C 68.402344 156.011719 61.464844 153.308594 54.921875 153.308594 Z M 57.710938 178.433594 C 54.039062 178.78125 48.746094 177.039062 48.496094 169.363281 C 48.246094 161.6875 52.230469 157.363281 56.839844 157.363281 C 60.949219 157.363281 65.304688 159.316406 65.304688 167.898438 C 65.304688 176.132812 61.433594 178.082031 57.710938 178.433594 Z M 146.699219 165.921875 C 146.300781 155.296875 137.875 152.882812 132.027344 153.367188 C 126.101562 153.855469 119.933594 156.554688 119.933594 167.949219 C 119.933594 179.824219 126.871094 182.527344 133.414062 182.527344 C 140.75 182.527344 147.09375 176.542969 146.699219 165.921875 Z M 131.71875 178.476562 C 127.613281 178.476562 123.253906 176.523438 123.253906 167.941406 C 123.253906 159.707031 127.125 157.757812 130.847656 157.402344 C 134.523438 157.054688 139.816406 158.800781 140.0625 166.472656 C 140.3125 174.148438 136.328125 178.476562 131.71875 178.476562 Z M 100.664062 173.414062 C 100.664062 173.414062 101.597656 178.277344 103.03125 178.558594 C 104.46875 178.839844 106.011719 174.453125 106.011719 174.453125 C 106.011719 174.453125 104.15625 173.550781 100.664062 173.414062 Z M 100.664062 173.414062 " fill-opacity="1" fill-rule="nonzero"/><g clip-path="url(#63c72bb285)"><path fill="#1d949a" d="M 146.777344 241.574219 C 145.234375 245.949219 143.371094 248.253906 142.457031 248.324219 C 141.332031 248.40625 141.613281 244.386719 141.613281 244.386719 C 141.613281 244.386719 138.824219 250.429688 137.558594 250.007812 C 136.292969 249.585938 136.699219 243.402344 136.699219 243.402344 C 136.699219 243.402344 134.9375 246.960938 133.339844 246.472656 C 132.703125 246.277344 133.054688 241.164062 133.460938 236.890625 Z M 27.644531 172.1875 C 26.546875 172.1875 25.617188 175.996094 25.617188 175.996094 C 25.617188 175.996094 23.253906 171.515625 21.734375 171.683594 C 20.40625 171.828125 20.886719 176.488281 21.027344 177.652344 C 20.992188 177.691406 20.957031 177.730469 20.921875 177.773438 C 20.371094 177.210938 18.28125 175.144531 17.261719 175.179688 C 16.535156 175.203125 17.253906 179.773438 18.171875 184.015625 L 31.046875 178.574219 C 29.816406 175.601562 28.265625 172.1875 27.644531 172.1875 Z M 27.644531 172.1875 " fill-opacity="1" fill-rule="nonzero"/></g><g clip-path="url(#96455abab3)"><path fill="#175c71" d="M 126.367188 150.28125 C 126.054688 150.828125 125.6875 151.335938 125.289062 151.808594 C 123.015625 154.5 117.300781 156.710938 111.980469 151.636719 C 107.777344 147.628906 107.363281 143.371094 108.925781 140.238281 C 114.910156 141.980469 121.300781 145.039062 126.367188 150.28125 Z M 107.074219 157.019531 C 108.550781 155.734375 110.417969 155.671875 112.191406 157.683594 C 113.875 159.589844 113.273438 161.226562 112.089844 162.21875 C 110.761719 163.328125 109 163.628906 107.007812 161.699219 C 105.347656 160.085938 106.058594 157.90625 107.074219 157.019531 Z M 61.175781 188.359375 C 60.902344 187.226562 61.390625 186.226562 62.945312 185.847656 C 64.417969 185.492188 65.113281 186.261719 65.308594 187.160156 C 65.53125 188.164062 65.203125 189.175781 63.628906 189.6875 C 62.316406 190.113281 61.363281 189.136719 61.175781 188.359375 Z M 94 209.328125 C 94.433594 209.328125 94.878906 209.324219 95.332031 209.320312 C 95.816406 205.019531 92.542969 200.457031 85.425781 198.554688 C 77.554688 196.449219 74.160156 201.265625 73.386719 205.085938 C 73.300781 205.507812 73.234375 205.933594 73.195312 206.367188 C 80.25 208.726562 87.867188 209.328125 94 209.328125 Z M 147.914062 216.320312 C 147.628906 215.003906 147.257812 213.746094 146.824219 212.535156 C 142.167969 214.542969 140.519531 219.835938 141.441406 223.683594 C 142.066406 226.296875 145.003906 229.507812 149.140625 229.003906 C 149.289062 225.21875 148.914062 220.921875 147.914062 216.320312 Z M 41.785156 195.320312 C 39.328125 193.675781 37.410156 190.886719 35.660156 187.933594 C 35.019531 188.097656 34.441406 188.46875 33.890625 189.058594 C 32.285156 190.792969 31.242188 194.574219 34.164062 197.148438 C 37.25 199.859375 41.246094 198.992188 43.238281 196.753906 C 43.359375 196.617188 43.460938 196.464844 43.554688 196.308594 C 42.957031 196.03125 42.367188 195.710938 41.785156 195.320312 Z M 41.785156 195.320312 " fill-opacity="0.2" fill-rule="nonzero"/></g><g clip-path="url(#ef2bf854fa)"><path fill="#175c71" d="M 121.105469 216.894531 C 116.511719 217.300781 111.867188 218.011719 107.46875 219.40625 C 107.421875 218.804688 107.375 218.222656 107.320312 217.667969 C 111.65625 216.335938 116.195312 215.625 120.710938 215.207031 C 120.84375 215.753906 120.976562 216.316406 121.105469 216.894531 Z M 122.679688 226.476562 C 117.65625 226.675781 112.632812 227.355469 107.742188 228.402344 C 107.738281 228.976562 107.726562 229.558594 107.714844 230.15625 C 112.652344 229.050781 117.71875 228.421875 122.753906 228.203125 C 122.785156 228.203125 122.8125 228.203125 122.839844 228.203125 C 122.792969 227.621094 122.738281 227.042969 122.679688 226.476562 Z M 106.972656 240.566406 C 106.894531 241.15625 106.8125 241.730469 106.726562 242.289062 C 112.023438 242.300781 117.316406 242.472656 122.601562 242.800781 C 122.671875 242.226562 122.734375 241.660156 122.789062 241.089844 C 117.523438 240.757812 112.25 240.585938 106.972656 240.566406 Z M 104.359375 251.996094 C 104.148438 252.605469 103.9375 253.183594 103.722656 253.730469 C 108.378906 253.644531 113.039062 253.785156 117.683594 254.164062 C 118.472656 254.226562 119.257812 254.308594 120.046875 254.386719 C 120.226562 253.828125 120.402344 253.269531 120.566406 252.714844 C 115.183594 252.164062 109.773438 251.921875 104.359375 251.996094 Z M 80.585938 218.992188 C 76.332031 217.246094 71.792969 216.238281 67.214844 215.625 C 67.082031 216.167969 66.953125 216.726562 66.828125 217.300781 C 71.511719 217.910156 76.15625 218.941406 80.460938 220.796875 C 80.5 220.171875 80.542969 219.570312 80.585938 218.992188 Z M 80.339844 231.125 C 80.320312 230.515625 80.304688 229.917969 80.296875 229.332031 C 75.414062 228 70.371094 227.164062 65.316406 226.738281 C 65.261719 227.296875 65.210938 227.863281 65.164062 228.433594 C 68.917969 228.757812 72.648438 229.332031 76.308594 230.128906 C 77.660156 230.421875 79.007812 230.753906 80.339844 231.125 Z M 81.300781 242.304688 C 81.214844 241.746094 81.132812 241.171875 81.054688 240.582031 C 75.773438 240.523438 70.488281 240.621094 65.214844 240.878906 C 65.269531 241.445312 65.328125 242.019531 65.398438 242.59375 C 70.695312 242.339844 76 242.242188 81.300781 242.304688 Z M 83.191406 253.796875 C 83.578125 253.8125 83.964844 253.835938 84.351562 253.855469 C 84.132812 253.300781 83.917969 252.71875 83.703125 252.101562 C 78.253906 251.878906 72.796875 251.972656 67.359375 252.382812 C 67.523438 252.941406 67.695312 253.503906 67.875 254.066406 C 72.96875 253.703125 78.085938 253.605469 83.191406 253.796875 Z M 97.015625 190.929688 C 95.230469 191.472656 93.398438 191.429688 91.617188 190.8125 C 91.179688 190.660156 90.675781 190.996094 90.5625 191.421875 C 90.433594 191.898438 90.730469 192.324219 91.171875 192.476562 C 93.195312 193.179688 95.441406 193.210938 97.488281 192.585938 C 97.933594 192.449219 98.210938 191.976562 98.082031 191.523438 C 97.957031 191.082031 97.464844 190.792969 97.015625 190.929688 Z M 97.015625 190.929688 " fill-opacity="1" fill-rule="nonzero"/></g><g fill="#100f0d" fill-opacity="1"><g transform="translate(158.509249, 198.374987)"><g><path d="M 21.035156 -20.539062 L 3.191406 -34.070312 L 3.191406 0 L 10.15625 0 L 10.15625 -20.179688 L 21.035156 -12.316406 L 31.914062 -20.179688 L 31.914062 0 L 38.835938 0 L 38.835938 -34.070312 Z M 21.035156 -20.539062 "/></g></g></g><g fill="#100f0d" fill-opacity="1"><g transform="translate(200.574477, 198.374987)"><g><path d="M 19.148438 0.585938 C 28.722656 0.585938 36.453125 -7.191406 36.453125 -16.765625 C 36.453125 -26.339844 28.722656 -34.070312 19.101562 -34.070312 C 9.527344 -34.070312 1.796875 -26.339844 1.796875 -16.765625 C 1.796875 -7.191406 9.527344 0.585938 19.148438 0.585938 Z M 19.101562 -27.417969 C 24.765625 -27.417969 29.304688 -22.652344 29.304688 -16.765625 C 29.304688 -10.789062 24.8125 -6.113281 19.148438 -6.113281 C 13.394531 -6.113281 8.945312 -10.789062 8.945312 -16.765625 C 8.945312 -22.652344 13.394531 -27.417969 19.101562 -27.417969 Z M 19.101562 -27.417969 "/></g></g></g><g fill="#100f0d" fill-opacity="1"><g transform="translate(238.81968, 198.374987)"><g><path d="M 19.148438 0.585938 C 28.722656 0.585938 36.453125 -7.191406 36.453125 -16.765625 C 36.453125 -26.339844 28.722656 -34.070312 19.101562 -34.070312 C 9.527344 -34.070312 1.796875 -26.339844 1.796875 -16.765625 C 1.796875 -7.191406 9.527344 0.585938 19.148438 0.585938 Z M 19.101562 -27.417969 C 24.765625 -27.417969 29.304688 -22.652344 29.304688 -16.765625 C 29.304688 -10.789062 24.8125 -6.113281 19.148438 -6.113281 C 13.394531 -6.113281 8.945312 -10.789062 8.945312 -16.765625 C 8.945312 -22.652344 13.394531 -27.417969 19.101562 -27.417969 Z M 19.101562 -27.417969 "/></g></g></g><g fill="#100f0d" fill-opacity="1"><g transform="translate(277.064883, 198.374987)"><g><path d="M 3.191406 -33.484375 L 3.191406 0 L 16.808594 0 C 26.429688 0 34.296875 -7.148438 34.296875 -16.765625 C 34.296875 -26.292969 26.429688 -33.484375 16.765625 -33.484375 Z M 10.15625 -6.292969 L 10.15625 -27.191406 L 16.765625 -27.191406 C 22.609375 -27.191406 27.148438 -22.832031 27.148438 -16.765625 C 27.148438 -10.742188 22.609375 -6.292969 16.808594 -6.292969 Z M 10.15625 -6.292969 "/></g></g></g><g fill="#100f0d" fill-opacity="1"><g transform="translate(313.152897, 198.374987)"><g><path d="M 17.484375 -17.035156 L 7.730469 -33.484375 L -0.269531 -33.484375 L 13.933594 -10.15625 L 13.933594 0 L 20.855469 0 L 20.855469 -10.789062 L 34.609375 -33.484375 L 27.28125 -33.484375 Z M 17.484375 -17.035156 "/></g></g></g></svg>